<?xml version="1.0" encoding="UTF-8" standalone="no"?>
<svg
   xmlns:dc="http://purl.org/dc/elements/1.1/"
   xmlns:cc="http://creativecommons.org/ns#"
   xmlns:rdf="http://www.w3.org/1999/02/22-rdf-syntax-ns#"
   xmlns:svg="http://www.w3.org/2000/svg"
   xmlns="http://www.w3.org/2000/svg"
   xmlns:sodipodi="http://sodipodi.sourceforge.net/DTD/sodipodi-0.dtd"
   xmlns:inkscape="http://www.inkscape.org/namespaces/inkscape"
   viewBox="0 0 475.5455 221.16843"
   version="1.1"
   id="svg1581"
   sodipodi:docname="rafiki-movie-night.svg"
   width="475.5455"
   height="221.16843"
   inkscape:version="1.0rc1 (09960d6, 2020-04-09)">
  <metadata
     id="metadata1587">
    <rdf:RDF>
      <cc:Work
         rdf:about="">
        <dc:format>image/svg+xml</dc:format>
        <dc:type
           rdf:resource="http://purl.org/dc/dcmitype/StillImage" />
        <dc:title />
      </cc:Work>
    </rdf:RDF>
  </metadata>
  <defs
     id="defs1585" />
  <sodipodi:namedview
     inkscape:document-rotation="0"
     pagecolor="#ffffff"
     bordercolor="#666666"
     borderopacity="1"
     objecttolerance="10"
     gridtolerance="10"
     guidetolerance="10"
     inkscape:pageopacity="0"
     inkscape:pageshadow="2"
     inkscape:window-width="1920"
     inkscape:window-height="1035"
     id="namedview1583"
     showgrid="false"
     showguides="true"
     inkscape:guide-bbox="true"
     fit-margin-top="0"
     fit-margin-left="0"
     fit-margin-right="0"
     fit-margin-bottom="0"
     inkscape:zoom="2.0138401"
     inkscape:cx="297.61066"
     inkscape:cy="91.305213"
     inkscape:window-x="0"
     inkscape:window-y="23"
     inkscape:window-maximized="1"
     inkscape:current-layer="svg1581">
    <sodipodi:guide
       position="231.79596,277.80578"
       orientation="0,-1"
       id="guide1589" />
  </sodipodi:namedview>
  <!--Movie night-->
  <path
     inkscape:connector-curvature="0"
     id="path1254"
     style="fill:#407bff;fill-opacity:0.121458;stroke-width:0.750881"
     d="M 96.134484,54.74175 C 63.514255,54.16666 39.458895,32.81653 12.642699,61.54216 -8.604765,84.35158 -1.098741,110.58277 20.533045,129.70445 64.541726,168.62351 139.95493,184.63971 195.32068,161.92374 250.30996,139.36592 273.61236,71.08862 225.12517,30.29333 207.01502,15.06788 180.32431,1.6323896 156.66112,12.5303 128.44882,25.51291 135.85289,55.44623 96.134484,54.74175 Z" />
  <g
     style="fill:#000000;fill-opacity:0.09311741"
     id="Shadow--inject-64"
     transform="translate(31.655513,-206.39156)">
    <ellipse
       cx="250"
       cy="416.23999"
       rx="193.89"
       ry="11.32"
       style="fill:#000000;fill-opacity:0.09311741"
       id="ellipse1259" />
  </g>
  <g
     id="Character--inject-64"
     transform="translate(31.655513,-206.39156)">
    <path
       d="m 393.89,291.93 -1.43,18.89 a 0.6,0.6 0 0 1 -0.59,0.54 h -8.11 a 0.59,0.59 0 0 1 -0.59,-0.54 l -0.31,-4.24 -0.73,-9.86 -0.35,-4.79 z"
       style="fill:#407bff"
       id="path1262"
       inkscape:connector-curvature="0" />
    <path
       d="m 393.89,291.93 -1.43,18.89 a 0.6,0.6 0 0 1 -0.59,0.54 h -8.11 a 0.59,0.59 0 0 1 -0.59,-0.54 l -0.31,-4.24 -0.73,-9.86 -0.35,-4.79 z"
       style="opacity:0.2"
       id="path1264"
       inkscape:connector-curvature="0" />
    <rect
       x="380.45001"
       y="290.97"
       width="14.77"
       height="1.9"
       rx="0.86000001"
       transform="rotate(0.06,382.12183,286.27887)"
       style="fill:#ebebeb"
       id="rect1266" />
    <path
       d="M 148.53,267.71 H 341.92 A 16.28,16.28 0 0 1 358.21,284 v 74 h -226 v -74 a 16.28,16.28 0 0 1 16.32,-16.29 z"
       style="fill:#407bff"
       id="path1268"
       inkscape:connector-curvature="0" />
    <path
       d="M 148.53,267.71 H 341.92 A 16.28,16.28 0 0 1 358.21,284 v 74 h -226 v -74 a 16.28,16.28 0 0 1 16.32,-16.29 z"
       style="opacity:0.3;fill:#ffffff"
       id="path1270"
       inkscape:connector-curvature="0" />
    <path
       d="M 167.84,267.71 H 347 a 15.5,15.5 0 0 1 15.5,15.5 V 358 H 152.34 v -74.8 a 15.5,15.5 0 0 1 15.5,-15.49 z"
       style="fill:#407bff"
       id="path1272"
       inkscape:connector-curvature="0" />
    <path
       d="M 167.84,267.71 H 347 a 15.5,15.5 0 0 1 15.5,15.5 V 358 H 152.34 v -74.8 a 15.5,15.5 0 0 1 15.5,-15.49 z"
       style="opacity:0.6;fill:#ffffff"
       id="path1274"
       inkscape:connector-curvature="0" />
    <path
       d="m 352.67,311.33 v 0 c -0.49,0 -1,0 -1.48,0 -10.44,0.75 -18.89,9.59 -19.55,20.48 a 22.84,22.84 0 0 0 0.68,7.15 114.47,114.47 0 0 1 3.3,28.6 v 42.27 a 3.62,3.62 0 0 0 3.54,3.68 h 69.76 V 311.33 Z"
       style="fill:#407bff"
       id="path1276"
       inkscape:connector-curvature="0" />
    <path
       d="m 352.67,311.33 v 0 c -0.49,0 -1,0 -1.48,0 -10.44,0.75 -18.89,9.59 -19.55,20.48 a 22.84,22.84 0 0 0 0.68,7.15 114.47,114.47 0 0 1 3.3,28.6 v 42.27 a 3.62,3.62 0 0 0 3.54,3.68 h 69.76 V 311.33 Z"
       style="opacity:0.4;fill:#ffffff"
       id="path1278"
       inkscape:connector-curvature="0" />
    <path
       d="m 430,333.29 c 0,-12.64 -10.25,-22.78 -22.56,-21.91 -10.45,0.75 -18.89,9.59 -19.56,20.48 a 22.84,22.84 0 0 0 0.68,7.15 114.47,114.47 0 0 1 3.3,28.6 v 42.27 a 3.62,3.62 0 0 0 3.54,3.68 h 27 a 3.62,3.62 0 0 0 3.54,-3.68 V 366 a 104.19,104.19 0 0 1 3.26,-26.8 22.65,22.65 0 0 0 0.8,-5.91 z"
       style="fill:#407bff"
       id="path1280"
       inkscape:connector-curvature="0" />
    <path
       d="m 430,333.29 c 0,-12.64 -10.25,-22.78 -22.56,-21.91 -10.45,0.75 -18.89,9.59 -19.56,20.48 a 22.84,22.84 0 0 0 0.68,7.15 114.47,114.47 0 0 1 3.3,28.6 v 42.27 a 3.62,3.62 0 0 0 3.54,3.68 h 27 a 3.62,3.62 0 0 0 3.54,-3.68 V 366 a 104.19,104.19 0 0 1 3.26,-26.8 22.65,22.65 0 0 0 0.8,-5.91 z"
       style="opacity:0.6;fill:#ffffff"
       id="path1282"
       inkscape:connector-curvature="0" />
    <rect
       x="195.74001"
       y="345.92999"
       width="184.13"
       height="67.639999"
       style="fill:#407bff"
       id="rect1284" />
    <rect
       x="195.74001"
       y="345.92999"
       width="184.13"
       height="67.639999"
       style="opacity:0.4;fill:#ffffff"
       id="rect1286" />
    <path
       d="m 200.82,340.36 h 177.89 a 4.8,4.8 0 0 1 4.8,4.8 V 358 a 4.8,4.8 0 0 1 -4.8,4.8 H 200.82 a 1.43,1.43 0 0 1 -1.43,-1.43 v -19.58 a 1.43,1.43 0 0 1 1.43,-1.43 z"
       style="fill:#407bff"
       id="path1288"
       inkscape:connector-curvature="0" />
    <path
       d="m 200.82,340.36 h 177.89 a 4.8,4.8 0 0 1 4.8,4.8 V 358 a 4.8,4.8 0 0 1 -4.8,4.8 H 200.82 a 1.43,1.43 0 0 1 -1.43,-1.43 v -19.58 a 1.43,1.43 0 0 1 1.43,-1.43 z"
       style="opacity:0.2;fill:#ffffff"
       id="path1290"
       inkscape:connector-curvature="0" />
    <path
       d="M 123.61,413.56 H 410 v 0.05 a 2.62,2.62 0 0 1 -2.62,2.62 H 126.23 a 2.62,2.62 0 0 1 -2.62,-2.62 z"
       style="fill:#407bff"
       id="path1292"
       inkscape:connector-curvature="0" />
    <path
       d="M 123.61,413.56 H 410 v 0.05 a 2.62,2.62 0 0 1 -2.62,2.62 H 126.23 a 2.62,2.62 0 0 1 -2.62,-2.62 z"
       style="opacity:0.2;fill:#ffffff"
       id="path1294"
       inkscape:connector-curvature="0" />
    <path
       d="m 376.05,401.16 c -5.65,1.22 -9.65,1.27 -12.48,0.78 a 2.59,2.59 0 0 0 1.53,-1.16 1.06,1.06 0 0 0 -0.13,-1.06 0.63,0.63 0 0 0 -0.55,-0.33 c -0.63,0 -1.46,0.9 -2.08,1.69 a 3.43,3.43 0 0 0 0,-2.47 0.64,0.64 0 0 0 -0.79,-0.21 1,1 0 0 0 -0.63,0.57 4.15,4.15 0 0 0 0.22,2.6 2.12,2.12 0 0 0 -0.45,0.11 l -4.05,-5.41 1.63,-1.49 -1.13,-2.78 -1.05,0.89 c -1,-1.55 -2.56,-4.09 -4.48,-7.3 4.2,-8.95 7.94,-20.12 8.19,-31.79 0.34,-16 -19.86,-24.17 -35.56,-28.08 l 3.35,-24.94 a 68.88,68.88 0 0 0 3.53,-11 12.47,12.47 0 0 0 1.58,-5 l -0.32,-7 -6.49,-1 -0.49,3.22 0.16,1.35 a 2.19,2.19 0 0 0 -2.05,-0.1 3.13,3.13 0 0 0 -4.47,-0.43 3.12,3.12 0 0 0 -1.83,-0.92 3.06,3.06 0 0 0 -2.16,0.52 c -1.06,-4.17 -2.74,-9.15 -4.76,-9.66 a 18.64,18.64 0 0 0 -2.76,-0.53 c -2.19,-0.39 -5.4,-0.94 -8.71,-1.34 -1,-0.13 -2,-0.24 -3,-0.33 v 0 c -0.36,-0.09 -0.69,-0.19 -1,-0.3 l 1.63,-0.35 a 10.59,10.59 0 0 0 6.95,0 h 6.22 v -0.2 h -128 a 119,119 0 0 0 -6,14.26 l 2.13,0.84 c -1.13,2.39 -2.17,4.83 -3.09,7.39 a 52.23,52.23 0 0 0 -2.33,8.44 31.82,31.82 0 0 0 -0.48,4.69 15.08,15.08 0 0 0 0.84,5.51 11.44,11.44 0 0 0 1.54,3 10.1,10.1 0 0 0 2.61,2.44 11,11 0 0 0 3,1.32 13.42,13.42 0 0 0 2.87,0.34 16.21,16.21 0 0 0 4.88,-0.77 c 0.45,-0.14 0.87,-0.32 1.3,-0.48 a 15.61,15.61 0 0 0 3.46,0.55 l 5.73,2.63 3.2,-5.76 c 0.35,3.7 0.6,6.43 0.87,7.83 1.79,11.23 5.07,18.42 10.49,22.15 5.71,3.93 22.18,1.32 32.77,0.83 2.72,2.32 5.44,4.68 8.09,7 -4.24,13.23 -14.36,34.11 -17.93,41.31 l -0.69,-0.47 -2.23,3.72 2.21,1.76 -1.86,2.34 v 0 l -5,6.42 -0.65,-0.4 a 0.68,0.68 0 0 0 -0.82,0.08 l -5.05,4.56 a 1,1 0 0 0 0.14,1.63 c 2.49,1.48 3.79,2.69 7.06,4.3 a 18.55,18.55 0 0 1 1.84,1 h 8.19 a 16.39,16.39 0 0 1 -2.81,-4.8 3.55,3.55 0 0 0 1.73,0.68 h 0.18 a 1,1 0 0 0 0.77,-0.51 0.51,0.51 0 0 0 0,-0.53 c -0.25,-0.5 -1.41,-0.82 -2.46,-1 0.9,-0.16 1.77,-0.47 1.95,-0.91 0.08,-0.17 0.09,-0.44 -0.28,-0.72 -1,-0.77 -2.36,0.24 -3.09,0.92 a 2.41,2.41 0 0 0 -0.48,-0.42 l 6.34,-8.13 2.83,2.26 3.8,-3.88 -1.62,-1.1 a 379.54,379.54 0 0 0 23.33,-33.34 c 11,12.66 20.34,29.72 24.21,37.26 l -1.13,0.77 2.87,4 2.66,-2 2,3.3 3.85,6.37 -0.61,0.46 a 0.69,0.69 0 0 0 -0.22,0.8 l 0.21,0.53 h 11.67 l 0.56,-0.43 c 2.32,-1.77 4.49,-3.29 6.9,-5 a 1.4,1.4 0 0 0 0.62,1.42 c 2.55,1.56 4,2.3 6.82,4.05 h 10.24 a 10.26,10.26 0 0 1 -2.09,-4.38 4.73,4.73 0 0 0 2.44,1.15 h 0.21 a 1.07,1.07 0 0 0 0.8,-0.61 0.6,0.6 0 0 0 0,-0.58 c -0.34,-0.63 -1.89,-1 -3.14,-1.21 1.09,-0.17 2.22,-0.56 2.46,-1.11 0.08,-0.19 0.1,-0.49 -0.32,-0.82 a 1.42,1.42 0 0 0 -1.09,-0.3 4.41,4.41 0 0 0 -2.22,1.39 2.1,2.1 0 0 0 -0.42,-0.37 l -0.67,-0.42 3.54,-5.22 3.22,1.88 1.77,-1.87 -2.04,-1.29 1.19,-1.83 c 0.47,-0.7 1,-1.46 1.49,-2.29 0.89,0.94 1.66,1.72 2.27,2.34 l -1,0.86 3,1.85 1.51,-1.38 1.71,2.28 0.72,1 -1,0.45 a 0.68,0.68 0 0 0 -0.38,0.82 l 2.14,7.39 a 1.37,1.37 0 0 0 1.88,0.82 c 3,-1.44 4.42,-2.28 8.28,-4 2.37,-1.07 8.57,-3.58 11.85,-5.06 3.28,-1.48 1.89,-4.87 0.39,-4.55 z m -179.53,-94.32 -8,1.33 -0.08,0.12 a 15.16,15.16 0 0 1 -5,-0.32 4.53,4.53 0 0 1 -1,-0.43 1.51,1.51 0 0 1 -0.46,-0.45 2.43,2.43 0 0 1 -0.12,-0.39 5,5 0 0 1 -0.07,-0.61 21.16,21.16 0 0 1 0.59,-5.42 48.4,48.4 0 0 1 2.21,-6.65 c 1,-2.4 2.12,-4.78 3.35,-7.15 l 3.65,1.44 c 0,0 2.3,-4.39 4.77,-9.87 l 0.18,0.84 c 0.11,0.5 0.21,1 0.31,1.48 a 277.87,277.87 0 0 1 4.24,29.75 z m 41.78,104.37 a 0.17,0.17 0 0 1 0,0.19 0.68,0.68 0 0 1 -0.52,0.35 3.7,3.7 0 0 1 -2.16,-1 c -0.08,-0.17 -0.16,-0.35 -0.25,-0.53 1.27,0.23 2.72,0.56 2.93,0.99 z m -0.7,-2.53 c 0.24,0.18 0.2,0.28 0.18,0.32 -0.17,0.41 -1.59,0.76 -2.67,0.81 l -0.16,-0.22 c 0.66,-0.59 1.86,-1.52 2.65,-0.91 z m 103.08,3.25 a 0.34,0.34 0 0 1 0,0.31 0.82,0.82 0 0 1 -0.59,0.46 c -0.6,0.1 -1.58,-0.39 -2.74,-1.31 -0.05,-0.21 -0.11,-0.41 -0.17,-0.61 1.35,0.22 3.18,0.57 3.5,1.15 z m -1.8,-3.29 a 1.08,1.08 0 0 1 0.87,0.23 c 0.33,0.26 0.26,0.43 0.23,0.49 -0.21,0.5 -1.73,0.94 -2.94,1 a 2.82,2.82 0 0 0 -0.23,-0.42 4.07,4.07 0 0 1 2.07,-1.3 z m -67.39,-88.48 h -0.05 a 0.69,0.69 0 0 0 -0.44,0.15 c -7.35,-2.23 -16.82,-3.31 -25.06,-3.82 -3,-1.6 -4.88,-2.49 -4.88,-2.49 0.86,-18.8 -1,-33.32 -3.4,-43.64 5.23,0.89 9.59,1.24 9.59,1.24 l 0.44,-2.8 h 0.1 a 142.05,142.05 0 0 0 16,2.69 c -3.34,3.41 -7.36,13.73 -7.36,13.73 l 3.2,2.29 c -0.73,2.56 -1.4,5.13 -2,7.75 -0.6,2.62 -1.13,5.2 -1.53,7.91 -0.21,1.35 -0.37,2.73 -0.46,4.17 -0.05,0.72 -0.07,1.45 -0.07,2.22 0,0.38 0,0.8 0,1.19 a 7.82,7.82 0 0 0 0.32,1.94 7.29,7.29 0 0 0 2.32,3.47 9,9 0 0 0 2.9,1.58 16.67,16.67 0 0 0 4.9,0.79 35.36,35.36 0 0 0 5.53,-0.33 c -0.01,0.66 -0.03,1.3 -0.05,1.96 z m -8,-9.82 a 0.48,0.48 0 0 1 -0.15,-0.14 0.41,0.41 0 0 1 0.18,0.14 z m 3,0.8 a 9.69,9.69 0 0 1 -2.69,-0.63 l -0.17,-0.09 c 0,-0.22 0,-0.42 0,-0.66 0,-0.52 0.09,-1.07 0.17,-1.63 0.15,-1.13 0.35,-2.31 0.59,-3.5 0.48,-2.38 1.09,-4.8 1.72,-7.23 0.38,-1.44 0.79,-2.88 1.21,-4.32 l 2.56,1.83 0.17,-0.32 c 0.35,2.26 0.63,4.35 0.84,6.31 0,0 0,0 0,0 0.42,3.82 0.62,7.16 0.67,10.39 a 34.21,34.21 0 0 1 -5.05,-0.15 z m 43.87,98.36 -0.26,0.07 c -0.33,-0.84 -0.76,-2.28 0.1,-2.8 a 0.48,0.48 0 0 1 0.25,-0.1 0.13,0.13 0 0 1 0.1,0 c 0.34,0.33 0.18,1.79 -0.17,2.83 z m 0.51,-0.07 c 0.63,-1.13 1.46,-2.37 1.93,-2.41 v 0 a 0.16,0.16 0 0 1 0.14,0.08 0.69,0.69 0 0 1 0.15,0.61 c -0.11,0.47 -0.68,1.05 -1.59,1.63 -0.17,0.03 -0.38,0.07 -0.61,0.09 z m 23,-20.56 c -1.18,3.23 -2.12,5.54 -2.75,7 l -1.16,-0.7 -1.21,2.48 2.9,1.7 -1.59,2.35 v 0 l -1.77,2.6 -0.24,-0.15 a 0.68,0.68 0 0 0 -0.89,0.12 l -0.4,0.47 c -0.17,-0.76 -0.66,-1.23 -1.17,-1 -4.82,2.23 -8.43,4.68 -13.32,5.44 a 3,3 0 0 0 1.18,-1.45 1.06,1.06 0 0 0 -0.21,-0.9 0.53,0.53 0 0 0 -0.48,-0.22 c -0.55,0.06 -1.27,1 -1.83,1.94 0.17,-0.9 0.2,-1.82 -0.15,-2.15 -0.13,-0.13 -0.38,-0.23 -0.77,0 -1.08,0.66 -0.62,2.28 -0.25,3.21 a 3.37,3.37 0 0 0 -0.56,0.3 l -5.79,-9.59 3.24,-2.41 -1.65,-4.01 -0.32,0.22 A 346.29,346.29 0 0 0 290,353.67 a 32.67,32.67 0 0 0 -2.71,-4.86 c 10.18,1.13 22.37,2.1 29.85,14.32 A 203.67,203.67 0 0 0 334.55,387 c -0.22,0.65 -0.44,1.28 -0.66,1.87 z M 340,364.35 c -1.94,-4 -3.72,-8 -5.14,-11.78 a 16.84,16.84 0 0 1 2.56,1.84 h 0.05 c 0.23,0.2 0.44,0.4 0.64,0.61 l 0.06,0.07 a 8.57,8.57 0 0 1 1.05,1.34 1.59,1.59 0 0 0 0.13,0.22 l 0.24,0.46 c 0,0.09 0.09,0.19 0.12,0.28 0.03,0.09 0.11,0.28 0.16,0.43 0.05,0.15 0.08,0.23 0.11,0.34 0.03,0.11 0.09,0.4 0.12,0.6 0.03,0.2 0.05,0.42 0.06,0.63 a 40.94,40.94 0 0 1 -0.16,4.96 z m 21.46,37.2 a 4.06,4.06 0 0 1 -0.26,-2.47 0.7,0.7 0 0 1 0.46,-0.41 h 0.2 a 0.3,0.3 0 0 1 0.27,0.14 c 0.34,0.47 0.09,1.86 -0.29,2.8 a 2.43,2.43 0 0 0 -0.36,-0.06 z m 0.79,0.11 c 0.64,-0.87 1.57,-2 2.15,-2 a 0.35,0.35 0 0 1 0.31,0.19 0.82,0.82 0 0 1 0.11,0.8 2.94,2.94 0 0 1 -1.83,1.17 7.29,7.29 0 0 1 -0.72,-0.16 z"
       style="opacity:0.1"
       id="path1296"
       inkscape:connector-curvature="0" />
    <path
       d="m 242.15,253.8 c 5,1.48 10.21,2.94 15.32,4.29 2.57,0.68 5.14,1.31 7.71,1.92 2.57,0.61 5.13,1.13 7.69,1.6 0.58,0.08 1,0.16 1.62,0.22 l 1.82,0.14 c 1.26,0.08 2.56,0.12 3.87,0.15 2.64,0 5.31,0.06 8,0 5.38,0 10.82,-0.07 16.24,-0.06 l 0.63,5.49 c -5.4,1.21 -10.79,2.19 -16.27,2.95 -2.73,0.36 -5.49,0.71 -8.29,0.93 -1.41,0.11 -2.83,0.2 -4.29,0.26 -0.73,0 -1.5,0 -2.25,0 -0.75,0 -1.68,-0.08 -2.45,-0.14 a 141.71,141.71 0 0 1 -16.63,-2.76 c -5.45,-1.22 -10.74,-2.65 -16.13,-4.41 z"
       style="fill:#e4897b"
       id="path1298"
       inkscape:connector-curvature="0" />
    <polygon
       points="359.07,389.99 352.98,396.02 364.98,412.06 371.07,406.03 "
       style="fill:#71403e"
       id="polygon1300" />
    <polygon
       points="350.32,397.58 342.92,393.26 331.77,409.72 339.17,414.05 "
       style="fill:#71403e"
       id="polygon1302" />
    <polygon
       points="337.17,401.75 342.92,393.26 350.32,397.59 344.57,406.07 "
       style="fill:#542f2f"
       id="polygon1304" />
    <polygon
       points="365.25,398.27 359.16,404.3 352.98,396.03 359.07,390 "
       style="fill:#542f2f"
       id="polygon1306" />
    <path
       d="m 347.27,359.44 c 0.25,7.65 -2.08,17 -4.65,24.71 -0.54,1.65 -1.1,3.25 -1.64,4.72 -2.34,6.37 -3.7,9.18 -3.7,9.18 L 348,404.3 a 31.59,31.59 0 0 1 2.28,-3.67 c 0.91,-1.35 1.94,-3 3,-4.83 5.74,-9.6 13.26,-25.29 13.62,-42 0.56,-26.14 -53.61,-31.34 -53.61,-31.34 h -25.6 l 7.18,20.38 c 0,0 51.93,2.67 52.4,16.6 z"
       style="fill:#407bff"
       id="path1308"
       inkscape:connector-curvature="0" />
    <path
       d="m 347.27,359.44 c 0.25,7.65 -2.08,17 -4.65,24.71 -0.54,1.65 -1.1,3.25 -1.64,4.72 -2.34,6.37 -3.7,9.18 -3.7,9.18 L 348,404.3 a 31.59,31.59 0 0 1 2.28,-3.67 c 0.91,-1.35 1.94,-3 3,-4.83 5.74,-9.6 13.26,-25.29 13.62,-42 0.56,-26.14 -53.61,-31.34 -53.61,-31.34 h -25.6 l 7.18,20.38 c 0,0 51.93,2.67 52.4,16.6 z"
       style="opacity:0.2"
       id="path1310"
       inkscape:connector-curvature="0" />
    <path
       d="m 341,388.87 a 55.89,55.89 0 0 0 9.25,11.76 c 0.91,-1.35 1.94,-3 3,-4.83 L 342.6,384.15 c -0.52,1.65 -1.08,3.25 -1.6,4.72 z"
       style="opacity:0.3"
       id="path1312"
       inkscape:connector-curvature="0" />
    <polygon
       points="351.15,403.74 337.06,395.21 335.86,397.7 349.38,405.61 "
       style="fill:#407bff"
       id="polygon1314" />
    <path
       d="m 332.16,337.78 1.09,11.11 c 7.58,2.37 13.41,5.62 14,10 1.26,-9.8 -5.59,-15.6 -15.09,-21.11 z"
       style="opacity:0.3"
       id="path1316"
       inkscape:connector-curvature="0" />
    <path
       d="m 304.09,322.46 c 0,0 32.07,13.08 37,27.54 6.23,18.46 23.17,44.53 23.17,44.53 l -8.58,7.82 c 0,0 -18.1,-17.5 -31.39,-39.22 -16.69,-27.29 -56.93,1.53 -45.77,-40.67 z"
       style="fill:#407bff"
       id="path1318"
       inkscape:connector-curvature="0" />
    <path
       d="m 304.09,322.46 c 0,0 32.07,13.08 37,27.54 6.23,18.46 23.17,44.53 23.17,44.53 l -8.58,7.82 c 0,0 -18.1,-17.5 -31.39,-39.22 -16.69,-27.29 -56.93,1.53 -45.77,-40.67 z"
       style="opacity:0.2"
       id="path1320"
       inkscape:connector-curvature="0" />
    <polygon
       points="364.23,392 352.98,401.54 355.94,403.39 365.4,394.78 "
       style="fill:#407bff"
       id="polygon1322" />
    <path
       d="m 278,320.42 -0.27,3.12 c -0.13,0.24 0.16,0.48 0.56,0.48 h 35.21 c 0.31,0 0.57,-0.15 0.59,-0.35 l 0.31,-3.11 c 0,-0.22 -0.25,-0.4 -0.59,-0.4 h -35.28 a 0.65,0.65 0 0 0 -0.53,0.26 z"
       style="fill:#407bff"
       id="path1324"
       inkscape:connector-curvature="0" />
    <path
       d="m 282.7,324.36 h -0.95 c -0.19,0 -0.33,-0.1 -0.32,-0.21 l 0.45,-4 c 0,-0.12 0.17,-0.22 0.36,-0.22 h 0.95 c 0.18,0 0.33,0.1 0.31,0.22 l -0.44,4 c -0.01,0.11 -0.18,0.21 -0.36,0.21 z"
       style="fill:#407bff"
       id="path1326"
       inkscape:connector-curvature="0" />
    <path
       d="m 310.8,324.36 h -0.94 c -0.19,0 -0.33,-0.1 -0.32,-0.21 l 0.44,-4 c 0,-0.12 0.18,-0.22 0.37,-0.22 h 0.94 c 0.19,0 0.33,0.1 0.32,0.22 l -0.44,4 c -0.01,0.11 -0.17,0.21 -0.37,0.21 z"
       style="fill:#407bff"
       id="path1328"
       inkscape:connector-curvature="0" />
    <path
       d="m 296.75,324.36 h -0.94 c -0.19,0 -0.34,-0.1 -0.32,-0.21 l 0.44,-4 c 0,-0.12 0.18,-0.22 0.37,-0.22 h 0.94 c 0.19,0 0.33,0.1 0.32,0.22 l -0.45,4 c -0.01,0.11 -0.17,0.21 -0.36,0.21 z"
       style="fill:#407bff"
       id="path1330"
       inkscape:connector-curvature="0" />
    <g
       style="opacity:0.6"
       id="g1338">
      <path
         d="m 282.7,324.36 h -0.95 c -0.19,0 -0.33,-0.1 -0.32,-0.21 l 0.45,-4 c 0,-0.12 0.17,-0.22 0.36,-0.22 h 0.95 c 0.18,0 0.33,0.1 0.31,0.22 l -0.44,4 c -0.01,0.11 -0.18,0.21 -0.36,0.21 z"
         id="path1332"
         inkscape:connector-curvature="0" />
      <path
         d="m 310.8,324.36 h -0.94 c -0.19,0 -0.33,-0.1 -0.32,-0.21 l 0.44,-4 c 0,-0.12 0.18,-0.22 0.37,-0.22 h 0.94 c 0.19,0 0.33,0.1 0.32,0.22 l -0.44,4 c -0.01,0.11 -0.17,0.21 -0.37,0.21 z"
         id="path1334"
         inkscape:connector-curvature="0" />
      <path
         d="m 296.75,324.36 h -0.94 c -0.19,0 -0.34,-0.1 -0.32,-0.21 l 0.44,-4 c 0,-0.12 0.18,-0.22 0.37,-0.22 h 0.94 c 0.19,0 0.33,0.1 0.32,0.22 l -0.45,4 c -0.01,0.11 -0.17,0.21 -0.36,0.21 z"
         id="path1336"
         inkscape:connector-curvature="0" />
    </g>
    <path
       d="m 347,413 c -1.2,0 -2.92,-1.47 -3.88,-2.38 a 0.17,0.17 0 0 1 0,-0.17 0.15,0.15 0 0 1 0.15,-0.08 c 0.43,0 4.21,0.4 4.78,1.42 a 0.62,0.62 0 0 1 0,0.59 1.08,1.08 0 0 1 -0.8,0.6 z m -3.37,-2.3 c 1.5,1.38 2.8,2.12 3.54,2 a 0.76,0.76 0 0 0 0.59,-0.46 0.31,0.31 0 0 0 0,-0.31 c -0.37,-0.67 -2.76,-1.08 -4.13,-1.23 z"
       style="fill:#407bff"
       id="path1340"
       inkscape:connector-curvature="0" />
    <path
       d="m 343.7,410.69 a 3.84,3.84 0 0 1 -0.5,0 0.14,0.14 0 0 1 -0.11,-0.09 0.14,0.14 0 0 1 0,-0.14 c 0.06,-0.08 1.45,-1.9 2.82,-2.07 a 1.38,1.38 0 0 1 1.09,0.29 c 0.41,0.33 0.4,0.63 0.31,0.82 -0.31,0.74 -2.31,1.19 -3.61,1.19 z m -0.2,-0.29 c 1.26,0.07 3.32,-0.45 3.57,-1 0,-0.05 0.1,-0.22 -0.23,-0.48 a 1.12,1.12 0 0 0 -0.88,-0.24 5,5 0 0 0 -2.46,1.72 z"
       style="fill:#407bff"
       id="path1342"
       inkscape:connector-curvature="0" />
    <path
       d="m 368.72,402.49 a 0.13,0.13 0 0 1 -0.12,-0.06 0.15,0.15 0 0 1 0,-0.16 c 0.19,-0.3 1.85,-2.87 2.91,-2.87 v 0 a 0.65,0.65 0 0 1 0.56,0.32 1.1,1.1 0 0 1 0.13,1.07 c -0.42,1 -2.34,1.48 -3.45,1.7 z m 2.78,-2.81 v 0 c -0.68,0 -1.88,1.57 -2.47,2.45 1.58,-0.34 2.65,-0.88 2.9,-1.46 a 0.8,0.8 0 0 0 -0.11,-0.79 0.36,0.36 0 0 0 -0.32,-0.2 z"
       style="fill:#407bff"
       id="path1344"
       inkscape:connector-curvature="0" />
    <path
       d="m 368.72,402.49 v 0 a 0.2,0.2 0 0 1 -0.12,-0.08 c 0,-0.1 -1,-2.33 -0.54,-3.44 a 1,1 0 0 1 0.64,-0.57 0.65,0.65 0 0 1 0.79,0.21 c 0.53,0.74 0,3 -0.64,3.82 a 0.14,0.14 0 0 1 -0.13,0.06 z m 0.24,-3.85 h -0.2 a 0.72,0.72 0 0 0 -0.45,0.42 c -0.36,0.79 0.19,2.34 0.43,3 0.48,-0.88 0.89,-2.71 0.5,-3.26 A 0.34,0.34 0 0 0 369,398.64 Z"
       style="fill:#407bff"
       id="path1346"
       inkscape:connector-curvature="0" />
    <path
       d="m 343.28,409.38 -8.11,-5.18 a 0.67,0.67 0 0 0 -0.89,0.13 l -5,5.83 a 1.37,1.37 0 0 0 0.34,2 c 2.86,1.76 4.33,2.46 7.9,4.74 2.19,1.4 6.45,4.36 9.82,5.61 3.37,1.25 4.78,-2 3.49,-2.85 -5.8,-3.68 -5.71,-6.27 -6.6,-9.09 a 2.18,2.18 0 0 0 -0.95,-1.19 z"
       style="fill:#407bff"
       id="path1348"
       inkscape:connector-curvature="0" />
    <path
       d="m 343.28,409.38 -8.11,-5.18 a 0.67,0.67 0 0 0 -0.89,0.13 l -5,5.83 a 1.37,1.37 0 0 0 0.34,2 c 2.86,1.76 4.33,2.46 7.9,4.74 2.19,1.4 6.45,4.36 9.82,5.61 3.37,1.25 4.78,-2 3.49,-2.85 -5.8,-3.68 -5.71,-6.27 -6.6,-9.09 a 2.18,2.18 0 0 0 -0.95,-1.19 z"
       style="opacity:0.5"
       id="path1350"
       inkscape:connector-curvature="0" />
    <path
       d="m 367.65,401.74 -8.77,4 a 0.68,0.68 0 0 0 -0.38,0.81 l 2.14,7.39 a 1.37,1.37 0 0 0 1.88,0.82 c 3,-1.43 4.43,-2.28 8.29,-4 2.37,-1.08 8.57,-3.59 11.84,-5.07 3.27,-1.48 2,-4.8 0.49,-4.48 -6.71,1.46 -11.12,1.26 -14,0.47 a 2.23,2.23 0 0 0 -1.49,0.06 z"
       style="fill:#407bff"
       id="path1352"
       inkscape:connector-curvature="0" />
    <path
       d="m 367.65,401.74 -8.77,4 a 0.68,0.68 0 0 0 -0.38,0.81 l 2.14,7.39 a 1.37,1.37 0 0 0 1.88,0.82 c 3,-1.43 4.43,-2.28 8.29,-4 2.37,-1.08 8.57,-3.59 11.84,-5.07 3.27,-1.48 2,-4.8 0.49,-4.48 -6.71,1.46 -11.12,1.26 -14,0.47 a 2.23,2.23 0 0 0 -1.49,0.06 z"
       style="opacity:0.5"
       id="path1354"
       inkscape:connector-curvature="0" />
    <path
       d="m 317.38,270.75 c 3.53,0.9 6,15.43 6,15.43 l -9.73,6.62 c 0,0 -9.33,-14.66 -6.61,-18.55 2.82,-4.04 5.19,-4.81 10.34,-3.5 z"
       style="fill:#407bff"
       id="path1356"
       inkscape:connector-curvature="0" />
    <path
       d="m 317.38,270.75 c 3.53,0.9 6,15.43 6,15.43 l -9.73,6.62 c 0,0 -9.33,-14.66 -6.61,-18.55 2.82,-4.04 5.19,-4.81 10.34,-3.5 z"
       style="opacity:0.6"
       id="path1358"
       inkscape:connector-curvature="0" />
    <path
       d="m 278.49,322.47 h 34.79 c 8.18,-50.29 4.1,-51.72 4.1,-51.72 0,0 -5.61,-1.15 -11.47,-1.87 -1,-0.12 -2,-0.24 -3,-0.33 a 111.11,111.11 0 0 0 -15.81,0 c -1,0.05 -2,0.12 -3,0.21 a 104.77,104.77 0 0 0 -11.8,1.74 c 6.79,29.07 6.77,37.8 6.19,51.97 z"
       style="fill:#407bff"
       id="path1360"
       inkscape:connector-curvature="0" />
    <path
       d="m 278.49,322.47 h 34.79 c 8.18,-50.29 4.1,-51.72 4.1,-51.72 0,0 -5.61,-1.15 -11.47,-1.87 -1,-0.12 -2,-0.24 -3,-0.33 a 111.11,111.11 0 0 0 -15.81,0 c -1,0.05 -2,0.12 -3,0.21 a 104.77,104.77 0 0 0 -11.8,1.74 c 6.79,29.07 6.77,37.8 6.19,51.97 z"
       style="opacity:0.6"
       id="path1362"
       inkscape:connector-curvature="0" />
    <path
       d="m 333.54,288.58 -1.06,-8.58 7.3,4.76 c 0,0 -0.41,5.49 -3.66,6.93 z"
       style="fill:#71403e"
       id="path1364"
       inkscape:connector-curvature="0" />
    <polygon
       points="339.78,284.75 332.49,280 332.98,276.72 339.46,277.72 "
       style="fill:#71403e"
       id="polygon1366" />
    <path
       d="m 284.12,268.76 0.37,0.88 c 0.2,0.49 5.05,11.88 14.44,19.49 l 2.3,1.85 1.77,-2.38 c 5.28,-7.15 3.7,-16.45 2.92,-19.72 -1,-0.12 -2,-0.24 -3,-0.33 a 111.11,111.11 0 0 0 -15.81,0 c -1.02,0.05 -2.02,0.12 -2.99,0.21 z"
       style="fill:#ebebeb"
       id="path1368"
       inkscape:connector-curvature="0" />
    <circle
       cx="287.09"
       cy="236.13"
       r="24.870001"
       style="fill:#263238"
       id="circle1370" />
    <path
       d="m 288.66,250.76 c 1,5.08 2,14.4 -1.57,17.79 0,0 4.67,11.14 13.62,18.38 5.6,-7.58 2.18,-18.38 2.18,-18.38 -5.66,-1.35 -5.52,-5.56 -4.53,-9.51 z"
       style="fill:#71403e"
       id="path1372"
       inkscape:connector-curvature="0" />
    <path
       d="m 292.61,254.14 5.74,4.9 a 16.25,16.25 0 0 0 -0.48,2.8 c -2.17,-0.31 -5.14,-2.69 -5.37,-5 a 7.6,7.6 0 0 1 0.11,-2.7 z"
       style="fill:#542f2f"
       id="path1374"
       inkscape:connector-curvature="0" />
    <path
       d="m 283.5,241 c 1.41,8.38 1.84,12 6.56,15.84 7.11,5.83 17.1,2.25 18.21,-6.38 1,-7.78 -1.48,-20.19 -10.1,-22.66 A 11.59,11.59 0 0 0 283.5,241 Z"
       style="fill:#71403e"
       id="path1376"
       inkscape:connector-curvature="0" />
    <path
       d="m 285.09,248.17 c 0,0 10.61,-7.95 1.44,-18.23 -10.27,0.56 -5.67,21.39 -1.44,18.23 z"
       style="fill:#263238"
       id="path1378"
       inkscape:connector-curvature="0" />
    <path
       d="m 306.54,228.06 c 0,0 -12.58,-9.83 -21.9,2.27 8.92,8.85 25.92,1.15 21.9,-2.27 z"
       style="fill:#263238"
       id="path1380"
       inkscape:connector-curvature="0" />
    <path
       d="m 282.1,249 a 6.45,6.45 0 0 0 3.28,3.43 c 2,0.88 3.22,-0.77 2.87,-2.78 -0.31,-1.8 -1.71,-4.44 -3.8,-4.49 -2.09,-0.05 -3.09,1.96 -2.35,3.84 z"
       style="fill:#71403e"
       id="path1382"
       inkscape:connector-curvature="0" />
    <path
       d="m 296.55,242 c 0.07,0.69 0.5,1.21 0.95,1.16 0.45,-0.05 0.75,-0.65 0.68,-1.33 -0.07,-0.68 -0.5,-1.21 -0.95,-1.16 -0.45,0.05 -0.75,0.65 -0.68,1.33 z"
       style="fill:#263238"
       id="path1384"
       inkscape:connector-curvature="0" />
    <path
       d="m 304.32,241.18 c 0.07,0.69 0.49,1.21 0.94,1.16 0.45,-0.05 0.76,-0.64 0.68,-1.33 -0.08,-0.69 -0.49,-1.21 -0.94,-1.16 -0.45,0.05 -0.76,0.64 -0.68,1.33 z"
       style="fill:#263238"
       id="path1386"
       inkscape:connector-curvature="0" />
    <path
       d="m 304.8,239.91 1.6,-0.65 c 0,0 -0.71,1.38 -1.6,0.65 z"
       style="fill:#263238"
       id="path1388"
       inkscape:connector-curvature="0" />
    <path
       d="m 302.39,242.58 a 18.33,18.33 0 0 0 2.92,4.13 3,3 0 0 1 -2.4,0.72 z"
       style="fill:#561616"
       id="path1390"
       inkscape:connector-curvature="0" />
    <path
       d="m 299.6,250.23 v 0 a 5.92,5.92 0 0 1 -3.76,-2.23 0.13,0.13 0 0 1 0,-0.18 0.13,0.13 0 0 1 0.18,0 5.73,5.73 0 0 0 3.58,2.13 0.13,0.13 0 0 1 0.12,0.14 0.13,0.13 0 0 1 -0.12,0.14 z"
       style="fill:#263238"
       id="path1392"
       inkscape:connector-curvature="0" />
    <path
       d="m 294.81,239.33 a 0.23,0.23 0 0 1 -0.14,0 0.25,0.25 0 0 1 -0.08,-0.35 3.86,3.86 0 0 1 3,-1.89 0.3,0.3 0 0 1 0.27,0.25 0.27,0.27 0 0 1 -0.26,0.27 3.34,3.34 0 0 0 -2.59,1.64 0.26,0.26 0 0 1 -0.2,0.08 z"
       style="fill:#263238"
       id="path1394"
       inkscape:connector-curvature="0" />
    <path
       d="m 307.42,237.08 a 0.27,0.27 0 0 1 -0.2,-0.09 3.36,3.36 0 0 0 -2.79,-1.29 0.25,0.25 0 0 1 -0.29,-0.23 0.26,0.26 0 0 1 0.23,-0.28 3.86,3.86 0 0 1 3.25,1.47 0.25,0.25 0 0 1 0,0.36 0.23,0.23 0 0 1 -0.2,0.06 z"
       style="fill:#263238"
       id="path1396"
       inkscape:connector-curvature="0" />
    <path
       d="m 297,240.74 1.6,-0.65 c 0,0 -0.67,1.38 -1.6,0.65 z"
       style="fill:#263238"
       id="path1398"
       inkscape:connector-curvature="0" />
    <path
       d="m 280.5,284 -4.5,3.82 c 1,5.08 1.6,9.32 2,13.08 0.86,-3.77 3,-14.01 2.5,-16.9 z"
       style="opacity:0.2"
       id="path1400"
       inkscape:connector-curvature="0" />
    <path
       d="m 334,288.23 c -1.82,3.48 -3.7,7 -5.71,10.23 -0.49,0.77 -1,1.52 -1.5,2.2 -1.23,-3.2 -2.41,-6.4 -3.47,-9.63 q -0.92,-2.77 -1.74,-5.55 c -0.27,-0.93 -0.54,-1.85 -0.78,-2.77 -0.24,-0.92 -0.49,-1.89 -0.66,-2.63 l -8.78,1.68 c 0.23,1.23 0.45,2.18 0.73,3.24 0.28,1.06 0.56,2 0.86,3.05 q 0.9,3 2,5.93 a 123.79,123.79 0 0 0 4.93,11.39 l 0.34,0.7 a 8.74,8.74 0 0 0 0.59,1.08 7.66,7.66 0 0 0 1,1.3 6,6 0 0 0 2,1.32 5.47,5.47 0 0 0 2.75,0.32 5.61,5.61 0 0 0 2,-0.69 8.05,8.05 0 0 0 2.09,-1.7 16.8,16.8 0 0 0 2.16,-3.09 c 0.56,-1 1,-2 1.49,-3 a 68,68 0 0 0 3.89,-11.92 z m -9,14.33 0.22,-0.11 c -0.17,0.15 -0.32,0.21 -0.22,0.11 z"
       style="fill:#71403e"
       id="path1402"
       inkscape:connector-curvature="0" />
    <path
       d="m 280.65,311.17 a 39.38,39.38 0 0 1 -7,0 9.34,9.34 0 0 1 -2.69,-0.63 l -0.17,-0.09 c 0,-0.21 0,-0.42 0,-0.66 0,-0.52 0.09,-1.07 0.16,-1.63 0.16,-1.13 0.36,-2.31 0.6,-3.5 0.48,-2.38 1.09,-4.8 1.71,-7.22 0.62,-2.42 1.36,-4.85 2.08,-7.28 0.72,-2.43 1.47,-4.87 2.19,-7.23 L 269,280.06 a 155.16,155.16 0 0 0 -4.34,15.22 c -0.61,2.59 -1.14,5.21 -1.54,7.91 -0.2,1.35 -0.36,2.73 -0.45,4.17 -0.05,0.72 -0.08,1.46 -0.07,2.23 0,0.37 0,0.79 0,1.18 a 7.8,7.8 0 0 0 0.33,1.94 7.17,7.17 0 0 0 2.32,3.47 9.15,9.15 0 0 0 2.9,1.59 17,17 0 0 0 4.89,0.79 42.64,42.64 0 0 0 8.39,-0.76 89.71,89.71 0 0 0 15.34,-4.34 l -1.23,-4.26 a 145.79,145.79 0 0 1 -14.89,1.97 z"
       style="fill:#71403e"
       id="path1404"
       inkscape:connector-curvature="0" />
    <path
       d="m 272.32,270.5 c -3.49,1.06 -8.83,14.74 -8.83,14.74 l 13.51,9.67 c 0,0 6.08,-11.7 4.62,-16.2 -1.51,-4.71 -5.33,-9.42 -9.3,-8.21 z"
       style="fill:#407bff"
       id="path1406"
       inkscape:connector-curvature="0" />
    <path
       d="m 272.32,270.5 c -3.49,1.06 -8.83,14.74 -8.83,14.74 l 13.51,9.67 c 0,0 6.08,-11.7 4.62,-16.2 -1.51,-4.71 -5.33,-9.42 -9.3,-8.21 z"
       style="opacity:0.6"
       id="path1408"
       inkscape:connector-curvature="0" />
    <path
       d="m 316.9,290 a 0.86,0.86 0 0 1 -0.28,0 l -16.17,-4.79 h -0.05 l -3.2,-0.95 a 1,1 0 0 1 -0.68,-1.25 1,1 0 0 1 1.25,-0.67 l 3.15,0.94 H 301 l 16,4.72 19.63,-3.84 a 1.0188351,1.0188351 0 1 1 0.39,2 L 317.1,290 a 0.68,0.68 0 0 1 -0.2,0 z"
       style="fill:#407bff"
       id="path1410"
       inkscape:connector-curvature="0" />
    <path
       d="m 316.9,290 a 0.86,0.86 0 0 1 -0.28,0 l -16.17,-4.79 h -0.05 l -3.2,-0.95 a 1,1 0 0 1 -0.68,-1.25 1,1 0 0 1 1.25,-0.67 l 3.15,0.94 H 301 l 16,4.72 19.63,-3.84 a 1.0188351,1.0188351 0 1 1 0.39,2 L 317.1,290 a 0.68,0.68 0 0 1 -0.2,0 z"
       style="opacity:0.2"
       id="path1412"
       inkscape:connector-curvature="0" />
    <circle
       cx="330.42999"
       cy="286.39001"
       r="3.1400001"
       transform="rotate(-42.46,330.44083,286.39545)"
       style="fill:#ffffff"
       id="circle1414" />
    <path
       d="m 323.52,285.72 a 2.41,2.41 0 1 0 2.52,-2.29 2.41,2.41 0 0 0 -2.52,2.29 z"
       style="fill:#ffffff"
       id="path1416"
       inkscape:connector-curvature="0" />
    <path
       d="m 318.69,288.11 a 3.14,3.14 0 1 0 1.61,-4.11 3.13,3.13 0 0 0 -1.61,4.11 z"
       style="fill:#ffffff"
       id="path1418"
       inkscape:connector-curvature="0" />
    <path
       d="m 315.08,289.32 a 2.41,2.41 0 1 0 1.24,-3.17 2.4,2.4 0 0 0 -1.24,3.17 z"
       style="fill:#ffffff"
       id="path1420"
       inkscape:connector-curvature="0" />
    <path
       d="m 310.89,286.54 a 3.14,3.14 0 1 0 4.36,-0.86 3.14,3.14 0 0 0 -4.36,0.86 z"
       style="fill:#ffffff"
       id="path1422"
       inkscape:connector-curvature="0" />
    <path
       d="m 307.93,284.14 a 2.41,2.41 0 1 0 3.35,-0.66 2.42,2.42 0 0 0 -3.35,0.66 z"
       style="fill:#ffffff"
       id="path1424"
       inkscape:connector-curvature="0" />
    <path
       d="m 302.56,283.68 a 3.15,3.15 0 1 0 3.53,-2.71 3.16,3.16 0 0 0 -3.53,2.71 z"
       style="fill:#ffffff"
       id="path1426"
       inkscape:connector-curvature="0" />
    <circle
       cx="301.23999"
       cy="283.16"
       r="2.4100001"
       transform="rotate(-67.96,301.26725,283.16896)"
       style="fill:#ffffff"
       id="circle1428" />
    <path
       d="m 313.75,284 a 3.14,3.14 0 1 0 4.36,-0.85 3.14,3.14 0 0 0 -4.36,0.85 z"
       style="fill:#ffffff"
       id="path1430"
       inkscape:connector-curvature="0" />
    <path
       d="m 314.86,281.3 a 2.47,2.47 0 1 0 3.43,-0.67 2.47,2.47 0 0 0 -3.43,0.67 z"
       style="fill:#ffffff"
       id="path1432"
       inkscape:connector-curvature="0" />
    <path
       d="m 313,279 a 2.19,2.19 0 1 0 3,-0.59 2.19,2.19 0 0 0 -3,0.59 z"
       style="fill:#ffffff"
       id="path1434"
       inkscape:connector-curvature="0" />
    <path
       d="m 316.05,279.6 a 2.19,2.19 0 1 0 3,-0.6 2.19,2.19 0 0 0 -3,0.6 z"
       style="fill:#ffffff"
       id="path1436"
       inkscape:connector-curvature="0" />
    <path
       d="m 329.72,282 a 2.18,2.18 0 1 0 3,-0.6 2.19,2.19 0 0 0 -3,0.6 z"
       style="fill:#ffffff"
       id="path1438"
       inkscape:connector-curvature="0" />
    <path
       d="m 310.79,281.65 a 2.41,2.41 0 1 0 3.34,-0.66 2.41,2.41 0 0 0 -3.34,0.66 z"
       style="fill:#ffffff"
       id="path1440"
       inkscape:connector-curvature="0" />
    <path
       d="m 305.42,281.19 a 3.14,3.14 0 1 0 3.53,-2.71 3.14,3.14 0 0 0 -3.53,2.71 z"
       style="fill:#ffffff"
       id="path1442"
       inkscape:connector-curvature="0" />
    <path
       d="m 317.13,283.23 a 3.14,3.14 0 1 0 3.52,-2.71 3.13,3.13 0 0 0 -3.52,2.71 z"
       style="fill:#ffffff"
       id="path1444"
       inkscape:connector-curvature="0" />
    <path
       d="m 320.77,282.59 a 3.14,3.14 0 1 0 3.53,-2.7 3.15,3.15 0 0 0 -3.53,2.7 z"
       style="fill:#ffffff"
       id="path1446"
       inkscape:connector-curvature="0" />
    <path
       d="m 325,282.8 a 3.15,3.15 0 1 0 3.53,-2.71 3.14,3.14 0 0 0 -3.53,2.71 z"
       style="fill:#ffffff"
       id="path1448"
       inkscape:connector-curvature="0" />
    <path
       d="m 331.27,283.92 a 2.37,2.37 0 1 0 2.65,-2 2.36,2.36 0 0 0 -2.65,2 z"
       style="fill:#ffffff"
       id="path1450"
       inkscape:connector-curvature="0" />
    <path
       d="m 301.71,280.36 a 2.41,2.41 0 1 0 2.7,-2.08 2.4,2.4 0 0 0 -2.7,2.08 z"
       style="fill:#ffffff"
       id="path1452"
       inkscape:connector-curvature="0" />
    <polygon
       points="330.07,335.05 336.78,285.15 333.5,285.79 327.65,286.94 324.27,287.6 318.57,288.71 316.9,289.04 315.27,288.56 309.7,286.91 306.4,285.93 300.69,284.24 300.68,284.24 297.48,283.29 299.44,333.6 "
       style="fill:#e6e6e6"
       id="polygon1454" />
    <polygon
       points="302.63,333.75 300.69,284.24 300.68,284.24 297.48,283.29 299.44,333.6 "
       style="fill:#407bff"
       id="polygon1456" />
    <polygon
       points="309.52,334.07 309.7,286.91 306.4,285.93 306.22,333.92 "
       style="fill:#407bff"
       id="polygon1458" />
    <polygon
       points="316.4,334.4 318.57,288.71 316.9,289.04 315.27,288.56 313.11,334.24 "
       style="fill:#407bff"
       id="polygon1460" />
    <polygon
       points="327.65,286.94 324.27,287.6 319.99,334.57 323.3,334.73 "
       style="fill:#407bff"
       id="polygon1462" />
    <polygon
       points="336.78,285.15 333.5,285.79 326.88,334.9 330.07,335.05 "
       style="fill:#407bff"
       id="polygon1464" />
    <g
       style="opacity:0.2"
       id="g1476">
      <polygon
         points="302.63,333.75 300.69,284.24 300.68,284.24 297.48,283.29 299.44,333.6 "
         id="polygon1466" />
      <polygon
         points="309.52,334.07 309.7,286.91 306.4,285.93 306.22,333.92 "
         id="polygon1468" />
      <polygon
         points="316.4,334.4 318.57,288.71 316.9,289.04 315.27,288.56 313.11,334.24 "
         id="polygon1470" />
      <polygon
         points="327.65,286.94 324.27,287.6 319.99,334.57 323.3,334.73 "
         id="polygon1472" />
      <polygon
         points="336.78,285.15 333.5,285.79 326.88,334.9 330.07,335.05 "
         id="polygon1474" />
    </g>
    <path
       d="m 295.36,309.32 5.87,-6 0.77,8.68 c 0,0 -4.57,3.05 -7.71,1.38 z"
       style="fill:#71403e"
       id="path1478"
       inkscape:connector-curvature="0" />
    <polygon
       points="301.98,312.01 301.23,303.33 308.38,302.45 308.62,309.75 "
       style="fill:#71403e"
       id="polygon1480" />
    <path
       d="m 227.61,263.78 c 3.71,6 26.73,7.82 26.73,7.82 L 257,255.07 a 86.46,86.46 0 0 0 -18.8,-3.86 c -9.37,-0.59 -14.66,6.02 -10.59,12.57 z"
       style="fill:#407bff"
       id="path1482"
       inkscape:connector-curvature="0" />
    <path
       d="m 227.61,263.78 c 3.71,6 26.73,7.82 26.73,7.82 L 257,255.07 a 86.46,86.46 0 0 0 -18.8,-3.86 c -9.37,-0.59 -14.66,6.02 -10.59,12.57 z"
       style="opacity:0.2"
       id="path1484"
       inkscape:connector-curvature="0" />
    <path
       d="m 238.16,251.21 c 0,0 11.92,20.66 10,62.79 l -38.9,5.92 c -1.17,-5.93 -1.85,-35.63 -11.89,-62.88 a 101.43,101.43 0 0 1 12.77,-3.63 144.44,144.44 0 0 1 16.53,-2.51 74.46,74.46 0 0 1 11.49,0.31 z"
       style="fill:#407bff"
       id="path1486"
       inkscape:connector-curvature="0" />
    <path
       d="m 238.16,251.21 c 0,0 11.92,20.66 10,62.79 l -38.9,5.92 c -1.17,-5.93 -1.85,-35.63 -11.89,-62.88 a 101.43,101.43 0 0 1 12.77,-3.63 144.44,144.44 0 0 1 16.53,-2.51 74.46,74.46 0 0 1 11.49,0.31 z"
       style="opacity:0.2"
       id="path1488"
       inkscape:connector-curvature="0" />
    <path
       d="m 248.15,314 c 0,0 39.76,18.93 49,39.67 a 348.89,348.89 0 0 1 15.71,44.25 l -10.66,7.92 c 0,0 -14.69,-30.93 -31.74,-47 -18.53,-17.47 -48.76,-41.3 -48.76,-41.3 z"
       style="fill:#407bff"
       id="path1490"
       inkscape:connector-curvature="0" />
    <path
       d="m 303,262.44 8,-2.21 -0.57,7.67 a 10.39,10.39 0 0 1 -8.22,-0.57 z"
       style="fill:#e4897b"
       id="path1492"
       inkscape:connector-curvature="0" />
    <polygon
       points="310.45,267.9 311.03,260.23 316.41,262.79 316.67,267.92 "
       style="fill:#e4897b"
       id="polygon1494" />
    <path
       d="m 207,267.06 c 1.19,5.67 -0.08,11.42 -2.85,14.42 q -0.62,-3 -1.34,-6.15 z"
       style="opacity:0.3"
       id="path1496"
       inkscape:connector-curvature="0" />
    <path
       d="m 208.94,234.55 c 1.85,5.16 4.37,14.75 1.19,18.86 0,0 2.28,5.2 12.16,3.67 7.89,-1.22 4.37,-6.18 4.37,-6.18 -6.14,-0.52 -6.66,-4.94 -6.25,-9.23 z"
       style="fill:#e4897b"
       id="path1498"
       inkscape:connector-curvature="0" />
    <path
       d="m 211.08,250.53 c 0,0 2.64,4.14 12,6.43 a 10.38,10.38 0 0 0 0.23,5.76 c 0,0 -11.25,-3.61 -14,-9.3 z"
       style="fill:#ffffff"
       id="path1500"
       inkscape:connector-curvature="0" />
    <path
       d="m 227,261.44 c 0,0 -1.5,-3.21 -3.92,-4.48 1.06,-1.88 1.81,-5.77 0.23,-7.27 a 17.15,17.15 0 0 1 3.47,0.67 c 0,0 2.36,3.2 0.22,11.08 z"
       style="fill:#ffffff"
       id="path1502"
       inkscape:connector-curvature="0" />
    <path
       d="m 213.61,237.45 6.79,4.21 a 17,17 0 0 0 -0.06,3 c -2.32,0 -5.81,-2 -6.41,-4.34 a 8.06,8.06 0 0 1 -0.32,-2.87 z"
       style="fill:#ce6f64"
       id="path1504"
       inkscape:connector-curvature="0" />
    <path
       d="m 223.62,215.06 c 3.9,1 7.46,11 3.13,14.05 -4.33,3.05 -10.53,-15.93 -3.13,-14.05 z"
       style="fill:#263238"
       id="path1506"
       inkscape:connector-curvature="0" />
    <path
       d="m 206.94,226.36 c 1.58,7.31 2.13,11.67 6.43,14.9 6.48,4.84 15.08,0.08 15.72,-7.56 0.58,-6.88 -2.1,-17.68 -9.77,-19.52 a 10.21,10.21 0 0 0 -12.38,12.18 z"
       style="fill:#e4897b"
       id="path1508"
       inkscape:connector-curvature="0" />
    <path
       d="m 218.45,226.72 c 0.1,0.6 0.49,1 0.88,1 0.39,0 0.64,-0.6 0.55,-1.2 -0.09,-0.6 -0.49,-1 -0.88,-1 -0.39,0 -0.64,0.6 -0.55,1.2 z"
       style="fill:#263238"
       id="path1510"
       inkscape:connector-curvature="0" />
    <path
       d="m 225.25,225.69 c 0.09,0.6 0.48,1 0.88,1 0.4,0 0.63,-0.6 0.54,-1.2 -0.09,-0.6 -0.48,-1 -0.87,-1 -0.39,0 -0.64,0.6 -0.55,1.2 z"
       style="fill:#263238"
       id="path1512"
       inkscape:connector-curvature="0" />
    <path
       d="m 223.14,226.31 a 21.8,21.8 0 0 0 3.65,4.71 3.51,3.51 0 0 1 -2.79,1 z"
       style="fill:#de5753"
       id="path1514"
       inkscape:connector-curvature="0" />
    <path
       d="m 221.61,234 a 5,5 0 0 1 -3.6,-1.46 0.18,0.18 0 1 1 0.27,-0.23 4.87,4.87 0 0 0 4.17,1.27 0.17,0.17 0 0 1 0.2,0.15 0.18,0.18 0 0 1 -0.15,0.2 5.6,5.6 0 0 1 -0.89,0.07 z"
       style="fill:#263238"
       id="path1516"
       inkscape:connector-curvature="0" />
    <path
       d="m 216,224.84 a 0.33,0.33 0 0 1 -0.17,0 0.35,0.35 0 0 1 -0.14,-0.48 3.56,3.56 0 0 1 2.65,-1.9 0.36,0.36 0 0 1 0.38,0.33 0.34,0.34 0 0 1 -0.32,0.38 v 0 a 2.86,2.86 0 0 0 -2.09,1.53 0.33,0.33 0 0 1 -0.31,0.14 z"
       style="fill:#263238"
       id="path1518"
       inkscape:connector-curvature="0" />
    <path
       d="m 227.82,222.9 a 0.36,0.36 0 0 1 -0.3,-0.15 2.83,2.83 0 0 0 -2.23,-1.29 0.35,0.35 0 0 1 -0.37,-0.35 0.37,0.37 0 0 1 0.35,-0.37 3.6,3.6 0 0 1 2.84,1.6 0.35,0.35 0 0 1 -0.29,0.56 z"
       style="fill:#263238"
       id="path1520"
       inkscape:connector-curvature="0" />
    <path
       d="m 206.6,267.91 c -1.36,2 -2.82,4.16 -4.17,6.29 -1.35,2.13 -2.68,4.32 -4,6.51 a 110.25,110.25 0 0 0 -6.71,13.29 47.51,47.51 0 0 0 -2.21,6.65 21.33,21.33 0 0 0 -0.6,5.43 c 0,0.29 0.07,0.43 0.08,0.6 a 2.09,2.09 0 0 0 0.11,0.39 1.56,1.56 0 0 0 0.47,0.45 4.41,4.41 0 0 0 1,0.44 18.15,18.15 0 0 0 6.36,0.2 l 2,5.14 a 18.43,18.43 0 0 1 -2.09,1 c -0.69,0.29 -1.4,0.56 -2.14,0.79 a 16.33,16.33 0 0 1 -4.89,0.77 12.79,12.79 0 0 1 -2.86,-0.34 10.77,10.77 0 0 1 -3.05,-1.32 10.05,10.05 0 0 1 -2.6,-2.44 11.91,11.91 0 0 1 -1.55,-3 15.33,15.33 0 0 1 -0.83,-5.51 31.81,31.81 0 0 1 0.48,-4.7 52.51,52.51 0 0 1 2.33,-8.44 80.78,80.78 0 0 1 3.25,-7.74 c 1.18,-2.49 2.45,-4.93 3.79,-7.3 1.34,-2.37 2.73,-4.71 4.2,-7 1.47,-2.29 2.93,-4.51 4.62,-6.8 z"
       style="fill:#e4897b"
       id="path1522"
       inkscape:connector-curvature="0" />
    <path
       d="m 195.6,308.18 8,-1.33 -4.15,8.38 c 0,0 -5.86,-0.18 -6.62,-3 z"
       style="fill:#e4897b"
       id="path1524"
       inkscape:connector-curvature="0" />
    <polygon
       points="199.45,315.23 203.6,306.85 208.94,311.08 205.17,317.85 "
       style="fill:#e4897b"
       id="polygon1526" />
    <path
       d="m 199.6,227.54 c 3.86,5.76 7.61,9.12 10.67,8.37 3.06,-0.75 2.95,-7.62 0.46,-13.47 -1.87,-4.4 2.51,-3.55 8.14,-3.85 6.32,-0.33 10.46,-5.48 8.22,-9.35 0.43,0.85 -10.05,1 -7,-2.73 -5.87,-0.74 -20.29,1.83 -21,12.19 -4.15,0.35 -2.33,4.62 0.51,8.84 z"
       style="fill:#263238"
       id="path1528"
       inkscape:connector-curvature="0" />
    <path
       d="m 199.16,219.17 a 3.16,3.16 0 0 0 -3.29,-3.42 22.12,22.12 0 0 1 3.29,3.42 z"
       style="fill:#263238"
       id="path1530"
       inkscape:connector-curvature="0" />
    <path
       d="m 204.85,235 a 7.1,7.1 0 0 0 4.85,2.44 c 2.49,0.17 3.22,-2.18 2.1,-4.26 -1,-1.88 -3.51,-4.22 -5.81,-3.4 a 3.19,3.19 0 0 0 -1.14,5.22 z"
       style="fill:#e4897b"
       id="path1532"
       inkscape:connector-curvature="0" />
    <path
       d="m 197.36,257 c -7.17,2.57 -14.68,24.93 -14.68,24.93 l 16,6.35 a 185.44,185.44 0 0 0 8.19,-18.09 c 3.35,-8.88 -2.42,-15.7 -9.51,-13.19 z"
       style="fill:#407bff"
       id="path1534"
       inkscape:connector-curvature="0" />
    <path
       d="m 197.36,257 c -7.17,2.57 -14.68,24.93 -14.68,24.93 l 16,6.35 a 185.44,185.44 0 0 0 8.19,-18.09 c 3.35,-8.88 -2.42,-15.7 -9.51,-13.19 z"
       style="opacity:0.2"
       id="path1536"
       inkscape:connector-curvature="0" />
    <polygon
       points="307.9,396.04 302.05,400.5 310.91,415.17 316.75,410.71 "
       style="fill:#e4897b"
       id="polygon1538" />
    <polygon
       points="306.62,408.07 302.05,400.51 307.9,396.05 312.47,403.61 "
       style="fill:#ce6f64"
       id="polygon1540" />
    <polygon
       points="251.36,396.07 245.1,392.2 234.56,405.71 240.81,409.58 "
       style="fill:#e4897b"
       id="polygon1542" />
    <polygon
       points="240.12,398.58 245.1,392.2 251.35,396.08 245.92,403.04 "
       style="fill:#ce6f64"
       id="polygon1544" />
    <path
       d="m 248.15,314 c 0,0 39.76,18.93 49,39.67 a 348.89,348.89 0 0 1 15.71,44.25 l -10.66,7.92 c 0,0 -14.69,-30.93 -31.74,-47 -18.53,-17.47 -48.76,-41.3 -48.76,-41.3 z"
       style="opacity:0.7"
       id="path1546"
       inkscape:connector-curvature="0" />
    <path
       d="m 316.24,410 -6.38,4.87 a 0.7,0.7 0 0 0 -0.22,0.8 l 2.46,6.33 a 1,1 0 0 0 1.57,0.45 c 2.28,-1.79 5.51,-4.48 8.41,-6.68 3.38,-2.59 6.44,-4.62 10.41,-7.65 2.4,-1.83 1.37,-4.89 0.22,-4.36 -5.28,2.44 -9.09,5.18 -14.74,5.63 a 3.31,3.31 0 0 0 -1.73,0.61 z"
       style="fill:#263238"
       id="path1548"
       inkscape:connector-curvature="0" />
    <path
       d="m 317.34,410.44 a 0.21,0.21 0 0 1 -0.13,-0.05 0.18,0.18 0 0 1 0,-0.2 c 0.17,-0.35 1.7,-3.41 2.69,-3.52 a 0.53,0.53 0 0 1 0.49,0.22 1,1 0 0 1 0.2,0.9 c -0.25,1.08 -2.08,2.12 -3.15,2.63 a 0.1,0.1 0 0 1 -0.1,0.02 z m 2.59,-3.42 v 0 c -0.53,0.05 -1.53,1.62 -2.18,2.85 1.43,-0.75 2.35,-1.54 2.49,-2.15 a 0.65,0.65 0 0 0 -0.14,-0.61 0.16,0.16 0 0 0 -0.17,-0.11 z"
       style="fill:#407bff"
       id="path1550"
       inkscape:connector-curvature="0" />
    <path
       d="m 317.34,410.44 v 0 a 0.17,0.17 0 0 1 -0.16,-0.09 c -0.06,-0.12 -1.56,-3 -0.06,-3.88 0.4,-0.24 0.64,-0.14 0.78,0 0.6,0.58 0.09,3 -0.41,3.89 a 0.16,0.16 0 0 1 -0.15,0.08 z m 0.22,-3.77 a 0.57,0.57 0 0 0 -0.26,0.1 c -1,0.59 -0.29,2.36 0,3.1 0.43,-1 0.68,-2.81 0.32,-3.16 a 0.16,0.16 0 0 0 -0.06,-0.04 z"
       style="fill:#407bff"
       id="path1552"
       inkscape:connector-curvature="0" />
    <polygon
       points="312.05,393.91 299.1,402.76 301.96,406.75 313.76,397.98 "
       style="fill:#407bff"
       id="polygon1554" />
    <path
       d="m 241.27,408.86 -6.83,-4.23 a 0.71,0.71 0 0 0 -0.83,0.08 l -5,4.57 a 1,1 0 0 0 0.14,1.62 c 2.49,1.49 3.79,2.7 7,4.31 6.36,3.13 7.2,7.35 13.36,7.35 3,0 4.53,-2.44 3.32,-2.83 -7.39,-2.4 -7.56,-4.35 -10,-9.47 a 3.2,3.2 0 0 0 -1.16,-1.4 z"
       style="fill:#263238"
       id="path1556"
       inkscape:connector-curvature="0" />
    <path
       d="m 244.72,412.11 c -1.09,0 -2.58,-1.25 -3.4,-2 a 0.17,0.17 0 0 1 0,-0.2 0.19,0.19 0 0 1 0.17,-0.1 c 0.39,0 3.8,0.37 4.25,1.26 a 0.56,0.56 0 0 1 0,0.53 1,1 0 0 1 -0.77,0.52 z M 242,410.2 c 1.21,1.06 2.29,1.65 2.9,1.55 a 0.69,0.69 0 0 0 0.52,-0.35 0.19,0.19 0 0 0 0,-0.19 c -0.27,-0.48 -2.09,-0.85 -3.42,-1.01 z"
       style="fill:#407bff"
       id="path1558"
       inkscape:connector-curvature="0" />
    <path
       d="m 241.92,410.17 a 3.78,3.78 0 0 1 -0.51,0 0.2,0.2 0 0 1 -0.14,-0.11 0.19,0.19 0 0 1 0,-0.18 c 0.09,-0.1 2.21,-2.52 3.6,-1.44 0.37,0.28 0.36,0.55 0.29,0.72 -0.25,0.63 -2.09,1.01 -3.24,1.01 z m -0.11,-0.35 c 1.11,0 2.86,-0.36 3.06,-0.82 0,0 0,-0.13 -0.18,-0.31 -0.9,-0.69 -2.32,0.56 -2.88,1.13 z"
       style="fill:#407bff"
       id="path1560"
       inkscape:connector-curvature="0" />
    <path
       d="m 234.35,316.1 c 0,0 58,-1.71 56.08,15.46 -2.63,23.45 -40.58,70.08 -40.58,70.08 l -8.46,-7.86 c 0,0 16.9,-33.38 20.46,-48.26 1.68,-7 -33.24,2.66 -42.11,-3.44 -5.42,-3.73 -8.7,-10.93 -10.49,-22.16 z"
       style="fill:#407bff"
       id="path1562"
       inkscape:connector-curvature="0" />
    <path
       d="m 234.35,316.1 c 0,0 58,-1.71 56.08,15.46 -2.63,23.45 -40.58,70.08 -40.58,70.08 l -8.46,-7.86 c 0,0 16.9,-33.38 20.46,-48.26 1.68,-7 -33.24,2.66 -42.11,-3.44 -5.42,-3.73 -8.7,-10.93 -10.49,-22.16 z"
       style="opacity:0.6"
       id="path1564"
       inkscape:connector-curvature="0" />
    <polygon
       points="254.31,399.17 241.97,390.75 239.75,394.47 250.51,403.04 "
       style="fill:#407bff"
       id="polygon1566" />
    <rect
       x="153.67"
       y="308.69"
       width="21.75"
       height="2.6700001"
       transform="rotate(180,164.545,310.03)"
       style="fill:#263238"
       id="rect1568" />
    <rect
       x="175.42"
       y="308.69"
       width="11.75"
       height="2.6700001"
       style="fill:#407bff"
       id="rect1570" />
    <path
       d="m 124.67,311.33 v 0 c -0.49,0 -1,0 -1.47,0 -10.45,0.75 -18.9,9.59 -19.56,20.48 a 22.84,22.84 0 0 0 0.68,7.15 114.47,114.47 0 0 1 3.3,28.6 v 42.27 a 3.62,3.62 0 0 0 3.54,3.68 h 85.59 V 311.33 Z"
       style="fill:#407bff"
       id="path1572"
       inkscape:connector-curvature="0" />
    <path
       d="m 124.67,311.33 v 0 c -0.49,0 -1,0 -1.47,0 -10.45,0.75 -18.9,9.59 -19.56,20.48 a 22.84,22.84 0 0 0 0.68,7.15 114.47,114.47 0 0 1 3.3,28.6 v 42.27 a 3.62,3.62 0 0 0 3.54,3.68 h 85.59 V 311.33 Z"
       style="opacity:0.4;fill:#ffffff"
       id="path1574"
       inkscape:connector-curvature="0" />
    <path
       d="m 217.83,333.29 c 0,-12.64 -10.25,-22.78 -22.56,-21.91 -10.45,0.75 -18.89,9.59 -19.56,20.48 a 23.14,23.14 0 0 0 0.68,7.15 114,114 0 0 1 3.31,28.6 v 42.27 a 3.61,3.61 0 0 0 3.53,3.68 h 27 a 3.61,3.61 0 0 0 3.54,-3.68 V 366 a 104.63,104.63 0 0 1 3.26,-26.8 22.65,22.65 0 0 0 0.8,-5.91 z"
       style="fill:#407bff"
       id="path1576"
       inkscape:connector-curvature="0" />
    <path
       d="m 217.83,333.29 c 0,-12.64 -10.25,-22.78 -22.56,-21.91 -10.45,0.75 -18.89,9.59 -19.56,20.48 a 23.14,23.14 0 0 0 0.68,7.15 114,114 0 0 1 3.31,28.6 v 42.27 a 3.61,3.61 0 0 0 3.53,3.68 h 27 a 3.61,3.61 0 0 0 3.54,-3.68 V 366 a 104.63,104.63 0 0 1 3.26,-26.8 22.65,22.65 0 0 0 0.8,-5.91 z"
       style="opacity:0.6;fill:#ffffff"
       id="path1578"
       inkscape:connector-curvature="0" />
  </g>
</svg>
